<svg width="16" height="16" viewBox="0 0 16 16" fill="none" xmlns="http://www.w3.org/2000/svg">
<path d="M13.3334 7.33334V11.3333M10.0001 12.6667V14.6667M6.00008 12.6667V14.6667M2.66675 7.33334V11.3333M6.66675 2.66668L5.66675 1.33334M9.33341 2.66668L10.3334 1.33334M4.33341 6.66668H11.6667M4.33341 6.33334C4.33341 5.36088 4.71972 4.42825 5.40736 3.74062C6.09499 3.05299 7.02762 2.66668 8.00008 2.66668C8.97254 2.66668 9.90517 3.05299 10.5928 3.74062C11.2804 4.42825 11.6667 5.36088 11.6667 6.33334V10.6667C11.6667 11.6093 11.6667 12.0807 11.3734 12.3733C11.0807 12.6667 10.6094 12.6667 9.66675 12.6667H6.33341C5.39075 12.6667 4.91941 12.6667 4.62675 12.3733C4.33341 12.0807 4.33341 11.6093 4.33341 10.6667V6.33334Z" stroke="#D0FBF6" stroke-linecap="round" stroke-linejoin="round"/>
</svg>
