<svg width="16" height="16" viewBox="0 0 16 16" fill="none" xmlns="http://www.w3.org/2000/svg">
<path d="M8.02 4.19995H7.98L7.3 6.12662H8.7L8.02 4.19995ZM2 11.3333H3.33333V14.6666H2V11.3333Z" fill="#A2F6EC"/>
<path d="M8 10C10.2067 10 12 8.20667 12 6C12 3.79333 10.2067 2 8 2C5.79333 2 4 3.79333 4 6C4 8.20667 5.79333 10 8 10ZM7.58 3.33333H8.41333L10.1667 8H9.36L8.94 6.80667H7.05333L6.64 8H5.82667L7.58 3.33333ZM4.66667 11.3333H6V14.6667H4.66667V11.3333ZM7.33333 11.3333H8.66667V14.6667H7.33333V11.3333ZM10 11.3333H14V14.6667H10V11.3333Z" fill="#A2F6EC"/>
</svg>
